<svg width="123" height="94" viewBox="0 0 123 94" fill="none" xmlns="http://www.w3.org/2000/svg">
<path d="M23.0098 65.4202V66.6902C23.0098 69.7112 25.4588 72.1602 28.4798 72.1602H36.8198C39.8408 72.1602 42.2898 69.7112 42.2898 66.6902V65.4202C42.2898 62.3992 39.8408 59.9502 36.8198 59.9502H28.4798C25.4588 59.9502 23.0098 62.3992 23.0098 65.4202Z" fill="#F9F4F4"/>
<path d="M59.02 10.63V6.82999C59.02 6.76999 59.02 6.70999 59.02 6.64999C59.02 6.52999 59.02 6.4 59 6.28C59 6.17 58.98 6.06999 58.97 5.95999C58.96 5.84999 58.94 5.74 58.92 5.62C58.9 5.5 58.88 5.38999 58.85 5.26999C58.83 5.16999 58.8 5.07998 58.78 4.97998C58.74 4.84998 58.71 4.72998 58.66 4.59998C58.63 4.51998 58.6 4.43999 58.57 4.35999C58.52 4.21999 58.46 4.08999 58.4 3.95999C58.37 3.88999 58.34 3.82 58.3 3.75C58.23 3.61 58.15 3.48 58.08 3.34C58.06 3.3 58.04 3.25998 58.02 3.22998C58.02 3.22998 57.98 3.17999 57.97 3.14999C57.89 3.01999 57.8 2.9 57.72 2.78C57.67 2.71 57.62 2.63999 57.57 2.57999C57.49 2.47999 57.4 2.38 57.32 2.28C57.25 2.21 57.19 2.13 57.12 2.06C57.04 1.98 56.96 1.89998 56.87 1.81998C56.79 1.74998 56.71 1.66998 56.63 1.59998C56.54 1.52998 56.46 1.45998 56.37 1.38998C56.29 1.32998 56.2 1.25998 56.11 1.19998C56.01 1.12998 55.9 1.07 55.8 1C55.72 0.95 55.64 0.899985 55.56 0.859985C55.44 0.789985 55.31 0.729983 55.18 0.669983C55.11 0.639983 55.05 0.599977 54.98 0.569977C54.84 0.509977 54.7 0.459994 54.55 0.399994C54.49 0.379994 54.43 0.349987 54.37 0.329987C54.23 0.279987 54.08 0.239991 53.94 0.209991C53.87 0.189991 53.8 0.169973 53.73 0.159973C53.6 0.129973 53.47 0.109996 53.33 0.0899963C53.24 0.0699963 53.15 0.0599878 53.05 0.0499878C52.94 0.0399878 52.82 0.029989 52.7 0.019989C52.58 0.019989 52.47 0 52.35 0C52.31 0 52.26 0 52.22 0C52.16 0 52.1 0 52.04 0C51.91 0 51.79 -1.09859e-05 51.66 0.019989C51.56 0.019989 51.45 0.0399878 51.35 0.0499878C51.23 0.0599878 51.12 0.0799756 51 0.0999756C50.89 0.119976 50.78 0.139983 50.67 0.169983C50.57 0.189983 50.46 0.22 50.36 0.25C50.24 0.28 50.12 0.319985 50.01 0.359985C49.92 0.389985 49.83 0.419991 49.74 0.459991C49.61 0.509991 49.49 0.559995 49.37 0.619995C49.29 0.659995 49.21 0.68998 49.13 0.72998C49 0.78998 48.88 0.859993 48.76 0.929993C48.72 0.959993 48.67 0.98 48.63 1L17.33 20.36L13.63 22.65L1.41 30.21C0.529996 30.75 0 31.71 0 32.75V40.35C0 42 1.33 43.33 2.98 43.33H10.65C12.3 43.33 13.63 41.99 13.63 40.35C13.63 39.32 14.16 38.36 15.04 37.81L40.85 21.85C42.83 20.62 45.39 22.04 45.4 24.37V86.63C45.4 90.4 48.45 93.45 52.22 93.45C55.99 93.45 59.04 90.4 59.04 86.63V70.56V10.59L59.02 10.63Z" fill="#F9F4F4"/>
<path d="M99.29 28.0798V26.8098C99.29 23.7888 96.841 21.3398 93.82 21.3398H85.48C82.459 21.3398 80.01 23.7888 80.01 26.8098V28.0798C80.01 31.1008 82.459 33.5499 85.48 33.5499H93.82C96.841 33.5499 99.29 31.1008 99.29 28.0798Z" fill="#00FF00"/>
<path d="M63.2895 82.8698V86.6698C63.2895 86.7298 63.2895 86.7898 63.2895 86.8498C63.2895 86.9698 63.2895 87.0998 63.3095 87.2198C63.3095 87.3298 63.3295 87.4298 63.3395 87.5398C63.3495 87.6498 63.3695 87.7598 63.3895 87.8798C63.4095 87.9998 63.4295 88.1098 63.4595 88.2298C63.4795 88.3298 63.5095 88.4198 63.5295 88.5198C63.5695 88.6498 63.5995 88.7698 63.6495 88.8998C63.6795 88.9798 63.7095 89.0598 63.7395 89.1398C63.7895 89.2798 63.8495 89.4098 63.9095 89.5398C63.9395 89.6098 63.9695 89.6798 64.0095 89.7498C64.0795 89.8898 64.1595 90.0198 64.2295 90.1598C64.2495 90.1998 64.2695 90.2398 64.2895 90.2698C64.2895 90.2698 64.3295 90.3198 64.3395 90.3498C64.4195 90.4798 64.5095 90.5998 64.5895 90.7198C64.6395 90.7898 64.6895 90.8598 64.7395 90.9198C64.8195 91.0198 64.9095 91.1198 64.9895 91.2198C65.0595 91.2898 65.1195 91.3698 65.1895 91.4398C65.2695 91.5198 65.3495 91.5998 65.4395 91.6798C65.5195 91.7498 65.5995 91.8298 65.6795 91.8998C65.7695 91.9698 65.8495 92.0398 65.9395 92.1098C66.0195 92.1698 66.1095 92.2398 66.1995 92.2998C66.2995 92.3698 66.4095 92.4298 66.5095 92.4998C66.5895 92.5498 66.6695 92.5998 66.7495 92.6398C66.8695 92.7098 66.9995 92.7698 67.1295 92.8298C67.1995 92.8598 67.2595 92.8998 67.3295 92.9298C67.4695 92.9898 67.6095 93.0398 67.7595 93.0998C67.8195 93.1198 67.8795 93.1498 67.9395 93.1698C68.0795 93.2198 68.2295 93.2598 68.3695 93.2898C68.4395 93.3098 68.5095 93.3298 68.5795 93.3398C68.7095 93.3698 68.8395 93.3898 68.9795 93.4098C69.0695 93.4298 69.1595 93.4398 69.2595 93.4498C69.3695 93.4598 69.4895 93.4698 69.6095 93.4798C69.7295 93.4798 69.8395 93.4998 69.9595 93.4998C69.9995 93.4998 70.0495 93.4998 70.0895 93.4998C70.1495 93.4998 70.2095 93.4998 70.2695 93.4998C70.3995 93.4998 70.5195 93.4998 70.6495 93.4798C70.7495 93.4798 70.8595 93.4598 70.9595 93.4498C71.0795 93.4398 71.1895 93.4198 71.3095 93.3998C71.4195 93.3798 71.5295 93.3598 71.6395 93.3298C71.7395 93.3098 71.8495 93.2798 71.9495 93.2498C72.0695 93.2198 72.1895 93.1798 72.2995 93.1398C72.3895 93.1098 72.4795 93.0798 72.5695 93.0398C72.6995 92.9898 72.8195 92.9398 72.9395 92.8798C73.0195 92.8398 73.0995 92.8098 73.1795 92.7698C73.3095 92.7098 73.4295 92.6398 73.5495 92.5698C73.5895 92.5398 73.6395 92.5198 73.6795 92.4998L104.98 73.1398L108.68 70.8498L120.9 63.2898C121.78 62.7498 122.31 61.7898 122.31 60.7498V53.1498C122.31 51.4998 120.98 50.1698 119.33 50.1698H111.66C110.01 50.1698 108.68 51.5098 108.68 53.1498C108.68 54.1798 108.15 55.1398 107.27 55.6898L81.4595 71.6498C79.4795 72.8798 76.9195 71.4598 76.9095 69.1298V6.86981C76.9095 3.09981 73.8595 0.0498047 70.0895 0.0498047C66.3195 0.0498047 63.2695 3.09981 63.2695 6.86981V22.9398V82.9098L63.2895 82.8698Z" fill="#00FF00"/>
</svg>
