<svg width="1024" height="1024" viewBox="0 0 1024 1024" fill="none" xmlns="http://www.w3.org/2000/svg">
<rect width="1024" height="1024" fill="#A33AF8"/>
<path fill-rule="evenodd" clip-rule="evenodd" d="M520.914 161.839C544.691 162.267 557.362 163.121 570.034 165.258C579.43 166.824 594.522 169.958 603.492 172.379C612.462 174.658 627.269 179.216 636.238 182.491C645.208 185.91 660.727 192.604 670.836 197.589C680.802 202.574 694.897 210.407 702.016 214.823C709.277 219.38 721.664 227.783 729.495 233.765C737.326 239.605 751.705 252.139 761.387 261.539C771.069 270.939 784.167 285.039 790.432 292.873C796.696 300.707 806.947 314.807 813.07 324.207C819.192 333.607 828.019 348.99 832.575 358.39C837.131 367.79 843.396 381.606 846.243 389.012C849.091 396.418 853.789 410.234 856.494 419.634C859.199 429.034 863.044 445.983 864.894 457.377C867.6 472.475 868.739 485.436 869.308 505.803C869.735 522.609 869.451 540.27 868.454 550.668C867.6 560.068 864.894 577.159 862.616 588.838C860.196 600.375 855.498 618.321 852.081 628.576C848.521 638.973 842.541 654.497 838.697 663.186C834.853 671.874 827.877 685.262 823.463 693.095C818.907 700.929 811.076 713.463 805.808 720.869C800.683 728.275 791.856 739.812 786.303 746.506C780.75 753.2 769.503 765.021 761.387 772.855C753.272 780.689 742.166 790.659 736.614 795.074C731.061 799.631 719.671 807.892 710.986 813.732C702.301 819.571 688.633 827.832 680.375 832.247C672.117 836.663 657.453 843.499 647.629 847.345C637.805 851.19 623.14 856.318 614.882 858.739C606.624 861.018 595.519 864.009 589.966 865.291C584.414 866.573 573.878 868.567 566.474 869.848C559.071 870.988 540.135 872.412 524.473 872.839C506.676 873.409 489.876 872.982 479.625 871.985C470.655 871.13 453.57 868.424 441.895 866.003C430.078 863.724 412.85 859.166 403.454 856.033C394.057 852.757 378.965 846.917 369.995 843.072C361.026 839.226 346.93 832.247 338.673 827.547C330.415 822.847 315.75 813.305 305.926 806.326C296.102 799.347 279.871 785.816 269.763 776.131C259.654 766.446 246.27 752.488 240.006 745.082C233.884 737.675 223.49 723.575 216.941 713.747C210.534 703.92 202.276 690.532 198.717 683.838C195.157 677.143 189.605 665.322 186.33 657.488C182.913 649.655 177.788 635.697 174.798 626.439C171.665 617.324 167.394 600.375 164.974 588.838C162.696 577.159 159.991 560.068 159.136 550.668C158.14 540.413 157.855 522.324 158.282 505.803C158.852 485.151 159.991 472.759 162.696 457.377C164.689 445.983 168.248 429.746 170.669 421.058C173.089 412.37 177.36 399.267 180.208 391.86C182.913 384.454 189.32 370.069 194.303 359.814C199.144 349.559 208.256 333.607 214.521 324.207C220.643 314.807 229.755 301.988 234.738 295.722C239.721 289.455 250.826 277.064 259.511 268.233C268.196 259.26 281.722 246.869 289.553 240.46C297.383 234.193 309.201 225.362 315.892 220.947C322.584 216.532 330.842 211.262 334.401 209.268C337.961 207.274 348.496 201.719 357.893 197.019C367.29 192.319 382.24 185.91 390.925 182.634C399.752 179.5 415.84 174.515 426.519 171.809C437.339 169.103 453.143 165.827 461.828 164.688C470.513 163.548 480.052 162.267 483.184 161.982C486.317 161.697 503.259 161.554 520.914 161.839ZM474.642 184.058C466.811 184.913 452.716 187.192 443.319 189.186C433.922 191.037 417.549 195.595 407.013 199.013C396.477 202.431 378.111 210.122 366.436 215.82C354.619 221.659 338.388 230.774 330.13 236.187C321.872 241.599 310.055 250.145 303.79 255.13C297.526 260.115 286.705 269.8 279.729 276.494C272.895 283.188 261.932 294.867 255.525 302.701C249.26 310.392 239.579 323.21 234.311 331.186C229.043 339.02 220.928 352.978 216.371 361.951C211.673 370.924 205.266 385.024 201.992 393.285C198.717 401.546 193.876 415.931 191.171 425.331C188.466 434.731 185.049 449.116 183.483 457.377C182.059 465.638 180.066 481.59 179.211 492.984C178.357 504.378 177.93 520.615 178.499 529.303C178.927 537.991 180.35 552.946 181.632 562.774C182.771 572.601 185.903 588.981 188.466 599.093C191.029 609.205 195.442 624.018 198.29 631.851C201.28 639.685 207.971 655.067 213.382 666.034C218.792 677.001 227.762 693.095 233.599 701.641C239.294 710.329 248.121 722.436 253.105 728.702C258.23 734.969 269.763 747.503 278.732 756.476C287.844 765.591 302.651 778.41 311.621 785.104C320.591 791.798 332.55 800.059 337.961 803.477C343.371 806.895 356.897 814.017 367.86 819.429C378.823 824.699 396.477 831.963 407.013 835.381C417.549 838.942 432.071 843.072 439.048 844.639C446.024 846.205 459.265 848.484 468.235 849.909C480.052 851.76 492.866 852.33 513.795 852.33C536.006 852.33 547.823 851.618 562.915 849.196C573.878 847.63 590.821 844.069 600.644 841.363C610.468 838.657 624.848 834.099 632.679 831.25C640.51 828.259 654.605 821.993 664.002 817.293C673.399 812.592 685.216 806.183 690.341 803.05C695.467 799.916 706.999 791.798 715.969 785.104C724.939 778.41 739.746 765.591 748.858 756.476C757.828 747.503 769.645 734.684 774.913 727.99C780.323 721.296 788.723 709.759 793.564 702.353C798.547 694.947 805.808 682.698 809.795 675.292C813.639 667.886 819.761 655.067 823.178 646.806C826.738 638.546 831.436 625.442 833.856 617.609C836.277 609.775 839.552 597.811 841.26 590.832C842.826 583.996 845.104 570.607 846.386 561.065C847.952 549.955 848.806 533.576 848.806 516.485C848.806 498.254 847.952 483.584 846.243 471.62C844.962 461.793 841.687 445.556 839.124 435.301C836.562 425.046 832.148 410.376 829.158 402.543C826.311 394.709 819.619 379.327 814.351 368.36C808.941 357.393 799.544 340.729 793.279 331.329C787.015 321.928 776.764 308.113 770.499 300.707C764.235 293.3 753.414 281.764 746.438 275.212C739.461 268.518 728.925 259.26 723.088 254.702C717.25 250.002 705.718 241.599 697.46 236.187C689.202 230.774 672.829 221.659 661.154 215.82C649.337 210.122 631.113 202.574 620.577 199.013C610.041 195.595 594.949 191.322 587.119 189.613C579.288 187.904 566.474 185.767 558.644 184.628C550.813 183.631 535.721 182.491 525.185 182.064C514.649 181.779 502.12 181.637 497.422 181.922C492.723 182.207 482.472 183.204 474.642 184.058ZM289.553 326.344C291.831 326.344 295.96 327.625 298.38 329.192C300.943 330.759 304.787 335.032 306.923 338.735C309.058 342.58 311.763 349.274 315.18 361.808L325.147 356.111C330.557 352.835 340.239 348.847 346.503 346.996C352.768 345.144 364.015 343.008 371.419 342.153C380.958 341.014 388.647 340.871 397.759 341.868C404.735 342.723 414.417 344.717 419.115 346.283C423.813 347.993 432.783 351.981 438.905 355.256C447.305 359.814 454.851 365.654 468.804 378.899C479.055 388.727 513.937 422.91 546.257 455.098C578.576 487.287 607.763 515.488 611.038 517.624C614.313 519.761 620.577 522.609 624.848 524.034C629.689 525.458 637.093 526.17 644.069 526.17C651.046 526.027 659.161 524.888 664.714 523.037C669.839 521.47 678.097 517.482 683.08 514.064C688.206 510.645 694.755 504.663 697.603 500.818C700.592 496.83 704.437 490.421 706.145 486.575C708.708 480.878 709.562 476.178 709.989 463.786C710.559 449.544 710.274 447.265 706.715 438.149C704.579 432.737 701.162 425.616 698.884 422.482C696.748 419.349 692.05 414.079 688.348 410.661C684.789 407.385 679.663 403.682 677.1 402.4C674.68 400.976 668.985 398.839 664.714 397.273C659.873 395.706 652.897 394.709 646.49 394.709C640.937 394.709 632.821 395.421 628.693 396.276C624.706 397.13 618.726 399.124 615.594 400.691C612.462 402.258 607.051 405.818 603.492 408.667C599.933 411.515 588.97 421.77 560.779 449.544L523.761 412.512L541.843 394.282C551.952 384.169 565.193 372.063 571.457 367.363C577.722 362.663 587.261 356.538 592.814 353.832C598.366 350.984 607.621 347.565 613.458 345.999C619.296 344.574 630.828 343.008 639.086 342.438C647.771 342.011 658.449 342.296 664.287 343.292C669.982 344.147 678.667 346.141 683.507 347.85C688.491 349.417 696.748 353.262 711.698 361.951L713.976 353.69C715.115 349.274 717.678 342.865 719.671 339.447C721.522 336.171 725.224 331.898 727.644 329.904C730.634 327.768 734.193 326.486 737.326 326.344C740.173 326.344 744.16 327.768 746.865 329.619C749.285 331.329 752.987 335.317 754.838 338.45C756.831 341.583 759.679 347.993 761.102 352.693C763.523 360.811 763.665 370.354 763.665 697.368L760.39 707.338C758.682 713.035 755.122 719.872 752.275 723.29C749.143 727.278 745.299 729.984 741.882 730.981C737.61 732.263 735.617 732.121 731.203 730.269C728.071 728.845 724.369 725.569 721.949 721.866C719.671 718.59 716.681 713.035 715.115 709.475C712.552 703.493 712.41 697.938 710.986 558.643L703.155 563.486C698.884 566.192 690.341 570.038 684.219 572.032C678.239 574.026 668.985 576.305 663.575 577.159C658.307 577.871 648.198 578.583 641.222 578.583C634.245 578.583 623.567 577.586 617.73 576.162C611.892 574.88 603.492 572.174 599.221 570.323C594.949 568.471 587.546 564.483 582.847 561.777C576.725 558.074 553.091 535.428 498.134 480.878C425.807 408.809 421.393 404.821 411.284 399.979C404.023 396.418 397.616 394.424 391.352 393.854C386.226 393.285 377.684 393.712 372.131 394.567C366.578 395.421 358.32 397.985 353.622 400.264C348.924 402.542 341.947 407.1 338.103 410.518C334.259 413.937 329.418 419.349 327.282 422.482C325.004 425.616 321.872 432.31 320.164 437.437C317.601 445.271 317.174 449.116 317.601 461.65C318.028 475.323 318.455 477.46 323.154 487.287C326.001 493.127 331.127 501.103 334.686 505.091C338.245 508.936 344.652 514.206 348.781 516.77C353.053 519.333 360.314 522.324 365.012 523.606C369.711 524.746 377.256 525.743 381.67 525.743C386.226 525.743 393.345 525.03 397.331 524.176C401.46 523.321 408.722 520.615 413.42 518.194C419.827 515.061 427.515 508.366 466.953 469.484L503.829 506.515L482.188 528.306C468.804 541.695 455.99 553.089 449.014 557.789C442.749 562.062 434.065 567.047 429.793 568.898C425.522 570.75 416.552 573.456 409.861 574.738C402.884 576.162 390.782 577.159 381.385 577.159C372.416 577.159 361.737 576.447 357.893 575.592C353.907 574.738 346.93 572.886 342.232 571.32C337.534 569.753 329.845 566.192 325.147 563.486C320.448 560.637 316.462 558.359 316.177 558.501C316.035 558.501 315.892 588.553 315.892 625.442C315.892 669.88 315.323 694.947 314.326 699.932C313.33 703.92 311.194 710.614 309.485 714.46C307.777 718.448 304.075 723.575 301.512 725.996C298.807 728.56 294.536 730.981 291.973 731.409C288.983 731.978 285.709 731.409 282.292 729.842C279.302 728.275 275.315 724.572 273.037 720.869C270.759 717.308 267.769 711.326 266.345 707.338C264.067 700.786 263.925 687.398 263.925 529.303C263.925 370.354 264.067 357.82 266.345 350.841C267.769 346.853 270.474 340.871 272.468 337.738C274.461 334.604 278.163 330.759 280.583 329.192C283.146 327.625 287.132 326.344 289.553 326.344Z" fill="white"/>
</svg>
